<?xml version="1.0" encoding="utf-8"?>
<!-- Generator: Adobe Illustrator 19.0.0, SVG Export Plug-In . SVG Version: 6.00 Build 0)  -->
<svg version="1.1" id="Layer_1" xmlns="http://www.w3.org/2000/svg" xmlns:xlink="http://www.w3.org/1999/xlink" x="0px" y="0px"
	 viewBox="0 0 500 500" style="enable-background:new 0 0 500 500;" xml:space="preserve">
<style type="text/css">
	.st0{fill:#494949;}
	.st1{fill:#FB3239;}
</style>
<g id="XMLID_1_">
	<path id="XMLID_2_" class="st0" d="M187.4,144.6l-4.8,3.2c-39.2,25.6-59.8,62.1-60.3,108.8c-0.6,59.7,41.5,111.7,99.7,125
		c75.1,17.3,149.5-37.2,155.6-113.9c4.8-60.7-36.3-115.2-94.1-134c-8.7-9.7-16.7-42.4-2.9-57.3c56.9,12.6,99.6,41.7,127.1,88.5
		c60.1,102.3,6.1,235.7-108.2,267.5C193.4,461.9,86,392,70.2,282.9C52.6,181.2,124.4,90.7,225.7,75.5
		C202,96.9,189.4,126.3,187.4,144.6"/>
	<path id="XMLID_3_" class="st1" d="M323.5,231.2c8.2-15.2,7.8-31.2,3.2-47.3c-1.1-4-3.5-10.8-5.1-15.2
		c27.4,20.2,50.7,68.8,38.8,117.1c-11,44.7-53.9,80.8-98.1,85c-57,5.4-101.3-28.8-117.9-70.3c-17.8-44.2-3.5-98.7,27-125.8
		c-15,30.1-10.3,54-4.2,62.9c6.8,9.9,17.6,15.1,28.2,12.1c11.1-3.1,19.6-13,19.4-25.7c-0.1-8.4-1.6-18-5-25.6
		c-19.8-45.2-3.3-85.9,28.6-113.9c9.3-8.1,20-16,33.7-23.6c-15.1,21.4-17.6,47.4-6.2,71.6c6.7,13.2,15.3,27,22.9,39.7
		c13.6,22.9,22,46.4,18.4,73.8C307.1,246.3,318,241.8,323.5,231.2"/>
</g>
</svg>
